<svg xmlns="http://www.w3.org/2000/svg" fill="#00ff00" width="168.81" height="168.384" viewBox="0 0 44.664 44.552" xmlns:v="https://vecta.io/nano"><path d="M44.2 17.786a2.31 2.31 0 0 0-.854-1.416c-3.779-3.115-9.02-2.906-15.722.628a7.4 7.4 0 0 0-1.441-1.123c4.62-4.134 8.831-5.869 12.633-5.207 1.121.195 1.897-1.086 1.203-1.985a21.87 21.87 0 0 0-5.406-5.006c-.512-.336-.998-.457-1.608-.399-4.88.463-8.438 4.307-10.672 11.533a7.42 7.42 0 0 0-1.815.223c.336-6.181 2.083-10.378 5.242-12.592.931-.652.572-2.106-.557-2.252-2.505-.324-4.897-.235-7.371.273a2.32 2.32 0 0 0-1.42.852c-3.123 3.769-2.913 8.997.63 15.682a7.43 7.43 0 0 0-1.126 1.438c-4.144-4.608-5.884-8.808-5.22-12.601a1.25 1.25 0 0 0-1.99-1.2 21.86 21.86 0 0 0-5.019 5.392 2.31 2.31 0 0 0-.4 1.604c.464 4.868 4.318 8.416 11.563 10.645a7.36 7.36 0 0 0 .223 1.81c-6.197-.335-10.405-2.078-12.624-5.228-.654-.929-2.111-.57-2.258.555a21.78 21.78 0 0 0 .273 7.353 2.31 2.31 0 0 0 .854 1.416c3.779 3.115 9.02 2.906 15.722-.628a7.4 7.4 0 0 0 1.441 1.123c-4.62 4.134-8.831 5.869-12.633 5.207-1.121-.195-1.897 1.086-1.203 1.985a21.87 21.87 0 0 0 5.406 5.006c.512.336.998.457 1.608.399 4.88-.463 8.438-4.307 10.672-11.533a7.4 7.4 0 0 0 1.815-.223c-.336 6.181-2.083 10.378-5.242 12.592-.931.652-.572 2.106.557 2.252 2.505.324 4.897.235 7.371-.273a2.32 2.32 0 0 0 1.42-.852c3.123-3.769 2.913-8.997-.63-15.682a7.43 7.43 0 0 0 1.126-1.438c4.144 4.608 5.884 8.808 5.22 12.601a1.25 1.25 0 0 0 1.99 1.2 21.86 21.86 0 0 0 5.019-5.392 2.31 2.31 0 0 0 .4-1.604c-.464-4.868-4.318-8.416-11.563-10.645a7.36 7.36 0 0 0-.223-1.81c6.197.335 10.405 2.078 12.624 5.228.654.929 2.111.57 2.258-.555a21.78 21.78 0 0 0-.273-7.353zM22.332 28.497a6.23 6.23 0 0 1-6.237-6.221 6.237 6.237 0 1 1 12.473 0 6.23 6.23 0 0 1-6.237 6.221z"><animateTransform attributeType="xml" attributeName="transform" type="rotate" from="0 22.2 22.2" to="360 22.2 22.2" dur="1.2s" additive="sum" repeatCount="indefinite"/></path></svg>