<svg xmlns="http://www.w3.org/2000/svg" xmlns:xlink="http://www.w3.org/1999/xlink" fill="#00bfff" width="793.701" height="793.701" viewBox="0 0 210 210" xmlns:v="https://vecta.io/nano">
    <path d="M93.248 63.565H2.408A2.41 2.41 0 0 0 0 65.966v63.488a2.41 2.41 0 0 0 2.408 2.402h90.84a2.41 2.41 0 0 0 2.407-2.402V65.967c.001-1.325-1.079-2.403-2.407-2.403zm-4.817 61.085H7.225V70.772h81.206zM65.289 139.6h-4.817v-4.405c0-.664-.541-1.201-1.205-1.201H36.388c-.665 0-1.204.537-1.204 1.201v4.405h-4.817a1.2 1.2 0 0 0-1.204 1.2v5.405c0 .664.54 1.201 1.204 1.201h34.922a1.2 1.2 0 0 0 1.203-1.201V140.8a1.2 1.2 0 0 0-1.203-1.2z" />
    <g transform="matrix(.745251 0 0 .743358 25.455089 75.39601)">
        <path d="M58.565 31.997c-2.219-8.122-6.187-15.74-6.622-16.563-.048-.111-.154-.526-.231-.829-.403-1.583-.669-2.492-1.442-2.774L42.616 9.04a3.26 3.26 0 0 0-2.89.339c-.88.564-1.871 1.117-2.188 1.226h-3.906l.012 1.359c.038.222.057.446.057.671a3.98 3.98 0 0 1-1.168 2.828c-.753.755-1.754 1.171-2.82 1.171-.227 0-.46-.019-.694-.06-1.583-.27-2.872-1.512-3.205-3.092-.113-.536-.12-1.073-.018-1.598l.011-1.28h-3.042c-.363-.106-1.557-.719-2.433-1.215-.849-.568-1.947-.699-2.906-.35L9.771 11.83c-.773.282-1.039 1.191-1.443 2.774-.077.304-.183.718-.221.809-.445.843-4.413 8.463-6.632 16.583-2.636 9.647-1.732 15.961 2.686 18.765 1.014.644 2.436.527 3.361-.27l9.102-7.827a6.1 6.1 0 0 1 3.976-1.475h18.84a6.1 6.1 0 0 1 3.976 1.475l9.102 7.827a2.88 2.88 0 0 0 1.877.698c.529 0 1.043-.148 1.484-.429 4.418-2.802 5.321-9.115 2.686-18.763zM9.766 21.191a5 5 0 1 1 4.986 5 5 5 0 0 1-4.986-5zm20.159 10.938c0 .945-.767 1.715-1.71 1.715h-2.279v2.285c0 .945-.767 1.715-1.71 1.715h-2.564c-.943 0-1.71-.77-1.71-1.715v-2.285h-2.279c-.943 0-1.71-.77-1.71-1.715v-2.57c0-.945.767-1.715 1.71-1.715h2.279v-2.285c0-.945.767-1.715 1.71-1.715h2.564c.943 0 1.71.77 1.71 1.715v2.285h2.279c.943 0 1.71.77 1.71 1.715zM44.67 15.191a2 2 0 1 1 0 4 2 2 0 1 1 0-4zm-3.989 4c1.102 0 1.994.896 1.994 2a2 2 0 0 1-1.994 2c-1.102 0-1.994-.896-1.994-2s.892-2 1.994-2zm-2.992 17a5 5 0 1 1 0-10 5 5 0 1 1 0 10zm6.981-9a2 2 0 1 1 0-4 2 2 0 1 1 0 4zm3.989-4c-1.102 0-1.994-.896-1.994-2a2 2 0 0 1 1.994-2c1.102 0 1.994.896 1.994 2a2 2 0 0 1-1.994 2z" />
        <ellipse cx="14.753" cy="21.191" rx="2.992" ry="3" />
        <path d="M23.941 35.844v-4h3.989v-2h-3.989v-4h-1.994v4h-3.989v2h3.989v4zm5.411-21.241c.675.118 1.31-.094 1.77-.554.376-.378.584-.88.584-1.414a1.89 1.89 0 0 0-.036-.371c-.016-.082-.023-.124-.034-1.659h-3.837l-.038 1.615c-.06.273-.059.56.001.849.165.771.818 1.403 1.59 1.534z" />
        <ellipse cx="37.689" cy="31.191" rx="2.992" ry="3" />
    </g>
    <path d="M180.875 113.672h-57.524V105.7a1.86 1.86 0 0 0-1.858-1.852h-4.858a1.86 1.86 0 0 0-1.858 1.853v1.89a1.86 1.86 0 0 0 1.858 1.853h1.105v44.23a1.86 1.86 0 0 0 1.858 1.853h1.895a1.86 1.86 0 0 0 1.858-1.853v-6.87h2.467v4.155a1.56 1.56 0 0 0 1.562 1.558h39.373a1.56 1.56 0 0 0 1.562-1.558v-4.155h2.184v4.155a1.56 1.56 0 0 0 1.562 1.558h5.581a1.56 1.56 0 0 0 1.562-1.558v-4.155h1.673a2.74 2.74 0 0 0 2.739-2.732v-27.668a2.74 2.74 0 0 0-2.739-2.732zm-9.653 1.941c-.118.06-2.697 2.09-2.732 2.02-.2-.062-31.969.116-32.106-.06a.97.97 0 0 0-.102-.089l-2.486-1.871zm-49.817 37.974h-1.719v-44.672c-.001-.779-.634-1.411-1.415-1.412h-1.547v-1.715h4.682zm12.392-8.724c.118-.06 2.697-2.09 2.732-2.02.2.062 31.969-.117 32.106.06.032.032.066.061.102.088l2.486 1.871zm-6.034 1.965h4.813v3.748h-4.813zm6.758 0h4.813v3.748h-4.813zm6.759 0h4.813v3.748h-4.813zm6.758 0h4.813v3.748h-4.813zm6.758 0h4.813v3.748h-4.813zm11.571 3.748h-4.813v-3.748h4.813zm10.888 0h-4.813v-3.748h4.813zm4.413-6.504c-.001.437-.355.79-.793.791h-6.424l-4.497-3.385a2.14 2.14 0 0 0-1.465-.575h-31.961a2.14 2.14 0 0 0-1.465.575l-4.497 3.386h-7.217v-29.25h7.217l4.497 3.386a2.14 2.14 0 0 0 1.465.575h31.961a2.14 2.14 0 0 0 1.465-.575l4.497-3.386h6.423c.438.001.792.355.793.791z" />
    <path d="M110.456 53.598h3.13v102.679h-3.13zm96.414 0H210v102.806h-3.13z" fill-opacity=".981" />
    <a transform="matrix(1.064008 0 0 1.064008 -6.719124 -6.784086)">
        <path d="M110.126 156.193v-2.823h93.556v2.823z" fill-opacity=".981" />
    </a>
    <a transform="matrix(1.064008 0 0 1.064008 -6.719124 -112.59346)">
        <path d="M110.126 156.193v-2.823h93.556v2.823z" fill-opacity=".981" />
    </a>
    <use xlink:href="#A" fill-opacity=".999" y="50.594" />
    <use xlink:href="#A" x="7.656" fill-opacity=".999" y="50.594" />
    <use xlink:href="#A" x="70.347" fill-opacity=".999" y="50.594" />
    <use xlink:href="#A" x="78.002" fill-opacity=".999" y="50.594" />
    <path d="M182.214 76.251a2.31 2.31 0 0 0-.854-1.416c-3.779-3.115-9.02-2.906-15.722.628a7.4 7.4 0 0 0-1.441-1.123c4.62-4.134 8.831-5.869 12.633-5.207 1.121.195 1.897-1.086 1.203-1.985a21.87 21.87 0 0 0-5.406-5.006c-.512-.336-.998-.457-1.608-.399-4.88.463-8.438 4.307-10.672 11.533a7.42 7.42 0 0 0-1.815.223c.336-6.181 2.083-10.378 5.242-12.592.931-.652.572-2.106-.557-2.252-2.505-.324-4.897-.235-7.371.273a2.32 2.32 0 0 0-1.42.852c-3.123 3.769-2.913 8.997.63 15.682a7.43 7.43 0 0 0-1.126 1.438c-4.144-4.608-5.884-8.808-5.22-12.601a1.25 1.25 0 0 0-1.99-1.2 21.86 21.86 0 0 0-5.019 5.392 2.31 2.31 0 0 0-.4 1.604c.464 4.868 4.318 8.416 11.563 10.645a7.36 7.36 0 0 0 .223 1.81c-6.197-.335-10.405-2.078-12.624-5.228-.654-.929-2.111-.57-2.258.555a21.78 21.78 0 0 0 .273 7.353 2.31 2.31 0 0 0 .854 1.416c3.779 3.115 9.02 2.906 15.722-.628a7.4 7.4 0 0 0 1.441 1.123c-4.62 4.134-8.831 5.869-12.633 5.207-1.121-.195-1.897 1.086-1.203 1.985a21.87 21.87 0 0 0 5.406 5.006c.512.336.998.457 1.608.399 4.88-.463 8.438-4.307 10.672-11.533a7.4 7.4 0 0 0 1.815-.223c-.336 6.181-2.083 10.378-5.242 12.592-.931.652-.572 2.106.557 2.252 2.505.324 4.897.235 7.371-.273a2.32 2.32 0 0 0 1.42-.852c3.123-3.769 2.913-8.997-.63-15.682a7.43 7.43 0 0 0 1.126-1.438c4.144 4.608 5.884 8.808 5.22 12.601a1.25 1.25 0 0 0 1.99 1.2 21.86 21.86 0 0 0 5.019-5.392 2.31 2.31 0 0 0 .4-1.604c-.464-4.868-4.318-8.416-11.563-10.645a7.36 7.36 0 0 0-.223-1.81c6.197.335 10.405 2.078 12.624 5.228.654.929 2.111.57 2.258-.555a21.78 21.78 0 0 0-.273-7.353zm-21.868 10.711a6.23 6.23 0 0 1-6.237-6.221 6.237 6.237 0 1 1 12.473 0 6.23 6.23 0 0 1-6.237 6.221z">
        <animateTransform attributeType="xml" attributeName="transform" type="rotate" from="0 160 81" to="360 160 81" dur="1.2s" additive="sum" repeatCount="indefinite" />
    </path>
    <use xlink:href="#B" y="50.594" />
    <use xlink:href="#B" x="5.822" y="50.594" />
    <use xlink:href="#B" x="11.54" y="50.594" />
    <use xlink:href="#B" x="17.362" y="50.594" />
    <use xlink:href="#B" x="23.183" y="50.594" />
    <use xlink:href="#B" x="29.005" y="50.594" />
    <use xlink:href="#B" x="55.694" y="50.594" />
    <use xlink:href="#B" x="61.516" y="50.594" />
    <use xlink:href="#B" x="67.234" y="50.594" />
    <use xlink:href="#B" x="73.056" y="50.594" />
    <use xlink:href="#B" x="78.878" y="50.594" />
    <use xlink:href="#B" x="84.7" y="50.594" />
    <use xlink:href="#C" y="50.594" />
    <use xlink:href="#C" x="5.822" y="50.594" />
    <use xlink:href="#C" x="11.54" y="50.594" />
    <use xlink:href="#C" x="17.362" y="50.594" />
    <use xlink:href="#C" x="23.184" y="50.594" />
    <use xlink:href="#C" x="29.006" y="50.594" />
    <use xlink:href="#C" x="35.008" y="50.594" />
    <use xlink:href="#C" x="40.83" y="50.594" />
    <use xlink:href="#C" x="46.548" y="50.594" />
    <use xlink:href="#C" x="52.37" y="50.594" />
    <use xlink:href="#C" x="58.192" y="50.594" />
    <use xlink:href="#C" x="64.013" y="50.594" />
    <use xlink:href="#C" x="69.721" y="50.594" />
    <use xlink:href="#C" x="75.025" y="50.594" />
    <use xlink:href="#D" y="50.594" />
    <use xlink:href="#E" y="50.594" />
    <use xlink:href="#D" y="56.669" />
    <use xlink:href="#E" y="56.67" />
    <use xlink:href="#D" y="62.744" />
    <use xlink:href="#E" y="62.745" />
    <use xlink:href="#D" x="12.15" y="81.645" />
    <use xlink:href="#F" y="50.594" />
    <use xlink:href="#D" x="6.075" y="81.645" />
    <use xlink:href="#E" x="6.075" y="81.645" />
    <use xlink:href="#D" y="81.645" />
    <use xlink:href="#E" y="81.645" />
    <use xlink:href="#D" x="6.075" y="50.594" />
    <use xlink:href="#E" x="6.075" y="50.594" />
    <use xlink:href="#D" x="12.15" y="50.594" />
    <use xlink:href="#F" y="19.543" />
    <use xlink:href="#D" x="12.15" y="75.569" />
    <use xlink:href="#F" y="44.519" />
    <use xlink:href="#D" x="12.15" y="69.494" />
    <use xlink:href="#F" y="38.444" />
    <use xlink:href="#D" x="12.15" y="62.744" />
    <use xlink:href="#F" y="31.694" />
    <use xlink:href="#D" x="6.075" y="66.119" />
    <use xlink:href="#E" x="6.075" y="66.12" />
    <use xlink:href="#D" y="69.494" />
    <use xlink:href="#E" y="69.495" />
    <use xlink:href="#D" x="6.075" y="72.869" />
    <use xlink:href="#E" x="6.075" y="72.87" />
    <use xlink:href="#D" x="6.075" y="59.369" />
    <use xlink:href="#E" x="6.075" y="59.37" />
    <use xlink:href="#G" y="50.594" />
    <use xlink:href="#G" x="19.143" y="50.594" />
    <use xlink:href="#G" x="-19.143" y="50.594" />
    <defs>
        <path id="A" d="M120.977 14.723h.734a.794.794 45 0 1 .794.794v31.376a.794.794 135 0 1-.794.794h-.734a.794.794 45 0 1-.794-.794V15.517a.794.794 135 0 1 .794-.794z" />
        <path id="B" d="M117.064 5.701h1.921a.794.794 45 0 1 .794.794v1.912a.794.794 135 0 1-.794.794h-1.921a.794.794 45 0 1-.794-.794V6.494a.794.794 135 0 1 .794-.794z" />
        <path id="C" d="M126.44 56.25h1.921a.794.794 45 0 1 .794.794v1.912a.794.794 135 0 1-.794.794h-1.921a.794.794 45 0 1-.794-.794v-1.912a.794.794 135 0 1 .794-.794z" />
        <path id="D" d="M188.857 66.351h2.025v2.025h-2.025z" />
        <path id="E" d="M192.57 65.338c0-.372-.303-.675-.675-.675h-.675v-.675h-.675v.675h-1.35v-.675h-.675v.675h-.675c-.372 0-.675.303-.675.675v.675h-.675v.675h.675v1.35h-.675v.675h.675v.675c0 .372.303.675.675.675h.675v.675h.675v-.675h1.35v.675h.675v-.675h.675c.372 0 .675-.303.675-.675v-.675h.675v-.675h-.675v-1.35h.675v-.675h-.675zm-4.725 4.05v-4.05h4.05v4.05z" />
        <path id="F" d="M204.72 96.389c0-.372-.303-.675-.675-.675h-.675v-.675h-.675v.675h-1.35v-.675h-.675v.675h-.675c-.372 0-.675.303-.675.675v.675h-.675v.675h.675v1.35h-.675v.675h.675v.675c0 .372.303.675.675.675h.675v.675h.675v-.675h1.35v.675h.675v-.675h.675c.372 0 .675-.303.675-.675v-.675h.675v-.675h-.675v-1.35h.675v-.675h-.675zm-4.725 4.05v-4.05h4.05l.001 4.05z" />
        <path id="G" d="M161.235 77.586c-.005-.028-.013-.056-.021-.083-.889-4.652-5.783-7.831-10.412-6.781-8.494 1.866-9.523 13.392-1.494 16.724 6.468 2.617 13.291-3.029 11.927-9.859zm-8.284 8.551a6.812 6.795 0 0 1-2.291-.272c.102-1.319.67-2.48 1.133-3.227a3.421 3.413 0 0 0 .817.097 15.448 15.409 0 0 0 .341 3.401zm-7.191-6.485a6.85 6.833 0 0 1 .273-2.285c1.319.103 2.483.672 3.234 1.135a3.422 3.413 0 0 0-.097.81 15.459 15.419 0 0 0-3.409.34zm6.503-7.169a6.877 6.86 0 0 1 2.289.273c-.101 1.29-.643 2.429-1.136 3.222a3.426 3.417 0 0 0-.813-.097 15.443 15.404 0 0 0-.34-3.398zm-1.148 6.825a1.492 1.488 0 0 1 1.49-1.486c1.977.082 1.976 2.892 0 2.973a1.492 1.488 0 0 1-1.49-1.486zm4.926-.004a15.441 15.402 0 0 0 3.408-.339 6.892 6.874 0 0 1-.273 2.284c-1.318-.103-2.482-.67-3.233-1.133a3.419 3.411 0 0 0 .098-.812zm3.037-2.245c-1.387.284-2.617.373-3.672.267a3.452 3.443 0 0 0-.307-.373 9.668 9.644 0 0 0 1.301-3.337 6.79 6.773 0 0 1 2.679 3.443zm-8.726-4.206c.284 1.382.374 2.608.268 3.66a3.438 3.429 0 0 0-.375.308 9.546 9.522 0 0 0-3.346-1.299 6.805 6.787 0 0 1 3.453-2.669zm-4.219 8.703c1.386-.284 2.616-.374 3.671-.269a3.457 3.449 0 0 0 .308.373 9.776 9.751 0 0 0-1.3 3.34 6.793 6.776 0 0 1-2.679-3.444zm8.728 4.207c-.284-1.383-.374-2.61-.268-3.663a3.46 3.451 0 0 0 .372-.305 9.545 9.521 0 0 0 3.344 1.3 6.808 6.791 0 0 1-3.447 2.669z">
            <animateTransform attributeType="xml" attributeName="transform" type="rotate" from="0 153 79.5" to="360 153 79.5" dur="2s" additive="sum" repeatCount="indefinite" />
        </path>
    </defs>
</svg>